<?xml version="1.0" encoding="utf-8"?>
<!-- Generator: Adobe Illustrator 18.0.0, SVG Export Plug-In . SVG Version: 6.00 Build 0)  -->
<!DOCTYPE svg PUBLIC "-//W3C//DTD SVG 1.1//EN" "http://www.w3.org/Graphics/SVG/1.1/DTD/svg11.dtd">
<svg version="1.1" id="Layer_1" xmlns="http://www.w3.org/2000/svg" xmlns:xlink="http://www.w3.org/1999/xlink" x="0px" y="0px"
	 viewBox="0 0 100 100" enable-background="new 0 0 100 100" xml:space="preserve">
<g>
	<path fill="#244B90" d="M50,100c27.5,0,50-22.5,50-50S77.5,0,50,0S0,22.5,0,50S22.5,100,50,100L50,100z M50,100"/>
	<path fill="#FFFFFF" d="M72.2,84l-3.9-16.7c0,0,13.3-12.8,11.8-29.3c-1.5-16.4-18.1-26.8-34.9-22.3c-16.8,4.5-19.6,17.9-19.7,20.2
		c-0.1,2.2,2,7.9,0.5,11.7c-1.5,3.9-6.8,9.9-6.3,11.7c0.5,1.8,5.1,2.1,5.1,2.1s0.1,1.7-0.6,2.1c-0.6,0.4-0.3,1.8,0.7,2.6
		c1,0.8,2.7,1.4,2.7,1.4S25.8,68,26,69.4c0.3,1.4,0.9,2.1,2.4,2.1c1.4,0.1,1.8-0.6,2.1,0.1c0.2,0.7,0.4,0.8,0.4,0.8
		s-1.4,3.7-0.2,6.4c1.2,2.7,3.2,2.7,5.4,2.2c2.2-0.6,6.6-1.8,6.6-1.8l1.2,6.1c1.2,8.8-4.8,13.4-4.9,13.5c3.5,0.8,7.2,1.2,11,1.2
		c11.1,0,21.4-3.6,29.7-9.8C78.9,89.8,72.5,84.3,72.2,84L72.2,84z M72.2,84"/>
	<path opacity="0.2" d="M31.1,79.6c1.2,2,3,1.9,5,1.4c2.2-0.6,6.6-1.8,6.6-1.8l1.2,6.1c0.4,3,0,5.5-0.7,7.5l0,0
		c4.2-5.9,1.1-10.5,1.6-12.7c0.5-2.3,9.3-4.4,11.1-5.8c1.8-1.4,3.1-5.3,3.1-5.3s-1.8,2.8-3.8,4.5c-1.9,1.7-17.1,6.2-20,7.1
		C32.5,81.6,31.2,79.8,31.1,79.6L31.1,79.6z M31.1,79.6"/>
	<path opacity="0.2" d="M41.2,17.1c10.5-3.8,22.9-1.8,30.4,5.9c9,9.2,11.1,25.8-4.6,43.5L72.2,84l-3.9-16.7c0,0,13.3-12.8,11.8-29.3
		c-1.5-16.4-18.1-26.8-34.9-22.3C43.8,16.1,42.4,16.6,41.2,17.1L41.2,17.1z M41.2,17.1"/>
	<path fill="#244B90" d="M53.1,23.9c5.4,0,9.9,4.5,9.9,10.1c0,3.8-2,7.1-5,8.8v4.6c0,0.6-0.4,1-1,1h-7.2c-0.5,0-1-0.5-1-1V43
		c-3.3-1.6-5.5-5.1-5.5-9.1C43.2,28.4,47.6,23.9,53.1,23.9L53.1,23.9z M53.1,23.9"/>
	<path opacity="0.2" d="M50,48.2h6c0.4,0,0.8,0.3,0.8,0.6c0,0.3-0.4,0.6-0.8,0.6c0.4,0,0.8,0.3,0.8,0.6c0,0.3-0.4,0.6-0.8,0.6
		c0.4,0,0.8,0.3,0.8,0.6s-0.4,0.6-0.8,0.6h-6c-0.4,0-0.8-0.3-0.8-0.6s0.4-0.6,0.8-0.6c-0.4,0-0.8-0.3-0.8-0.6c0-0.3,0.4-0.6,0.8-0.6
		c-0.4,0-0.8-0.3-0.8-0.6C49.2,48.5,49.6,48.2,50,48.2L50,48.2z M50,48.2"/>
	<path fill="#FFFFFF" d="M50.3,33.7l1.6,12.8h2.3l1.6-12.8l0.6,0.1l-1.6,13l0,0.3h-3.3l0-0.3l-1.6-13L50.3,33.7L50.3,33.7z
		 M50.3,33.7"/>
	<path fill="#FFFFFF" d="M54,32.1l-0.2,1.4l5.4-0.8l-7.3,3l0.3-2l-4.8,0.9L54,32.1L54,32.1z M54,32.1"/>
	<path fill="#244B90" d="M52.6,54.5v0.2H52v-0.2h-0.2c-0.2,0-0.4-0.1-0.5-0.3h0c-0.3,0-0.6-0.3-0.6-0.6c0-0.2,0.1-0.4,0.3-0.5H50
		c-0.3,0-0.6-0.3-0.6-0.6c0-0.3,0.3-0.6,0.6-0.6h6c0.3,0,0.6,0.3,0.6,0.6c0,0.3-0.3,0.6-0.6,0.6h-0.9c0.2,0.1,0.3,0.3,0.3,0.5
		c0,0.3-0.3,0.6-0.6,0.6h0c-0.1,0.2-0.3,0.3-0.5,0.3h-0.2v0.2h-0.6v-0.2H52.6L52.6,54.5z M52.6,54.5"/>
</g>
</svg>
