<?xml version="1.0" encoding="utf-8"?>
<!-- Generator: Adobe Illustrator 18.0.0, SVG Export Plug-In . SVG Version: 6.00 Build 0)  -->
<!DOCTYPE svg PUBLIC "-//W3C//DTD SVG 1.1//EN" "http://www.w3.org/Graphics/SVG/1.1/DTD/svg11.dtd">
<svg version="1.1" id="Layer_1" xmlns="http://www.w3.org/2000/svg" xmlns:xlink="http://www.w3.org/1999/xlink" x="0px" y="0px"
	 viewBox="0 0 100 100" enable-background="new 0 0 100 100" xml:space="preserve">
<g>
	<circle fill="#244B90" cx="50" cy="50" r="50"/>
	<polygon fill="#FFFFFF" points="32.1,15.2 32.1,26.4 20.9,26.4 20.9,84.8 73.9,84.8 73.9,15.2 	"/>
	<g>
		<polygon fill="#E6E9EE" points="32.1,15.2 20.9,26.4 32.1,26.4 		"/>
		<rect x="27.5" y="58.8" fill="#E6E9EE" width="39.7" height="3"/>
		<rect x="27.5" y="65.2" fill="#E6E9EE" width="39.7" height="3"/>
		<rect x="27.5" y="71.6" fill="#E6E9EE" width="23.5" height="3"/>
	</g>
	
		<rect x="59.3" y="45.2" transform="matrix(-0.7071 0.7071 -0.7071 -0.7071 141.0256 42.2252)" fill="#2B3B4E" width="5" height="10.2"/>
	<circle fill="#244B90" cx="49.8" cy="38.3" r="15.9"/>
	<circle fill="#84DBFF" cx="49.8" cy="38.3" r="12.3"/>
	<path fill="#E6E9EE" d="M67,50.1l-5.4,5.4c-0.2,0.2-0.2,0.5,0,0.7l14.6,14.6c0.2,0.2,0.5,0.2,0.7,0l5.4-5.4c0.2-0.2,0.2-0.5,0-0.7
		L67.7,50.1C67.5,49.9,67.2,49.9,67,50.1z"/>
	
		<rect x="64.8" y="56.1" transform="matrix(-0.7071 -0.7071 0.7071 -0.7071 80.013 154.0564)" fill="#244B90" width="14.2" height="8.6"/>
</g>
</svg>
