<?xml version="1.0" encoding="utf-8"?>
<!-- Generator: Adobe Illustrator 18.0.0, SVG Export Plug-In . SVG Version: 6.00 Build 0)  -->
<!DOCTYPE svg PUBLIC "-//W3C//DTD SVG 1.1//EN" "http://www.w3.org/Graphics/SVG/1.1/DTD/svg11.dtd">
<svg version="1.1" id="Layer_1" xmlns="http://www.w3.org/2000/svg" xmlns:xlink="http://www.w3.org/1999/xlink" x="0px" y="0px"
	 viewBox="0 0 100 100" enable-background="new 0 0 100 100" xml:space="preserve">
<g>
	<g>
		<path fill="#244B90" d="M100,50c0-27.6-22.4-50-50-50C22.4,0,0,22.4,0,50c0,27.6,22.4,50,50,50C77.6,100,100,77.6,100,50L100,50z
			 M100,50"/>
	</g>
	<path opacity="0.2" fill="#FFFFFF" d="M85.6,37.3c-0.1-0.1-0.2-0.1-0.3,0l-15.5,5c-0.2,0.1-0.3,0.3-0.3,0.5l2.9,14.5
		c-0.5-0.1-1.1,0-1.7,0.1c-0.3,0.1-0.5,0.2-0.8,0.3c-1.1,0.4-2,1.2-2.6,2.1c-0.6,1-0.7,2-0.3,2.9c0.4,0.9,1.1,1.6,2.3,1.9
		c0.8,0.2,1.7,0.3,2.5,0.1c0.2-0.1,0.5-0.1,0.8-0.2c1-0.4,1.8-1,2.4-1.8c0.6-0.8,0.8-1.7,0.7-2.6v0l0-0.1c-0.1-0.5-0.3-1.8-0.8-4.1
		c-0.4-2.2-0.9-4.4-1.3-6.4l-0.5-2.7l11.3-4l1.8,9.8c-0.6-0.1-1.2-0.1-1.9,0.1c-0.3,0.1-0.5,0.1-0.8,0.2c-1.1,0.4-2,1.2-2.6,2.1
		c-0.6,1-0.7,2-0.3,2.9c0.4,0.9,1.1,1.6,2.2,1.9c0.8,0.2,1.7,0.2,2.5,0c0.3-0.1,0.5-0.1,0.8-0.3c1-0.4,1.8-1,2.4-1.9
		c0.6-0.9,0.8-1.8,0.6-2.6c-0.1-0.5-1.2-6.2-3.4-17.5C85.8,37.5,85.7,37.4,85.6,37.3L85.6,37.3z M85.6,37.3"/>
	<path fill="#F9BB9B" d="M52.3,52.1c0,0-3.5-2.3-5.8-3.6c0,0-2.2-1-1.4-6.1c0,0-3.6-4.6-14.9-0.2c0,0,4.9,15.6,6.7,19.6
		C38.6,65.7,51.7,54.7,52.3,52.1L52.3,52.1z M52.3,52.1"/>
	<path fill="#F9BB9B" d="M31.7,28.1c0,0-2.5-0.1-3.8-0.3c0,0-2.7-0.9-5.3,4.7L15,45.4l16.5,8l1.2-1.7l-10.8-8.4c0,0,3.9-6.5,4.3-7.7
		l2.3,3.3l3.7-5.5L31.7,28.1z M31.7,28.1"/>
	<path fill="#F9BB9B" d="M41.8,29.4c-3.4-0.6-2.7-3-2.7-3L34,25.6l-1.5,2.3l2.4,9.5l8.8,0C43.8,37.4,43.7,29.7,41.8,29.4L41.8,29.4z
		 M41.8,29.4"/>
	<path fill="#F9BB9B" d="M79.4,30.1c0,0-2.7,0.6-4.2,0.6c-3.5-0.1-8.2-0.7-12.6,0.2c0,0-15.7-2.4-20-1.4l3.7,6.5
		c0,0,13-0.8,15.4-1.5c0,0,10.6-1.6,18.2-2.2L79.4,30.1z M79.4,30.1"/>
	<path fill="#FFFFFF" d="M41.8,29.4c0,0,2.4,5.2-0.5,7.5L39.7,37c0,0-6.6-6.8-7.2-9.1L31.3,28c0,0,1.2,3.3-0.2,6.1
		c0,0-2.5,3.7-2.6,4.9c-0.2,1.2,0.4,2.3,1.6,3.1c0,0,5.9,2.4,9.7-1.4l1.3,0.1c0,0,2.4,1.4,3.8,1.8c0,0,3.3-1.7,2.5-5.3
		c-0.4-1.9-3.8-7-4.2-7.7C43,29.4,41.8,29.4,41.8,29.4L41.8,29.4z M41.8,29.4"/>
	<path fill="#FFFFFF" d="M52.3,52.1c-3.9,5.2-15.3,10-15.3,10l1.5,7.4c-0.9,2.9-2.1,19.2-2.7,28.3c2.3,0.7,4.6,1.2,7,1.6l6.1-31.8
		l1.2-0.5l15,30.6c2.4-0.7,4.7-1.7,6.9-2.8L60,63.6C55.3,54.4,52.3,52.1,52.3,52.1L52.3,52.1z M52.3,52.1"/>
	<path opacity="0.25" d="M52.3,52.1c0,0,0.4,0.3,1.2,1.2c0,0-3.1,3.2-7.4,5.7c-4.3,2.5-8.8,4.8-8.8,4.8L37,62.2
		C36.9,62.2,48.4,57.3,52.3,52.1L52.3,52.1z M52.3,52.1"/>
	<path fill="#C18161" d="M43.9,53.7c-0.2,0.2-0.6,0-0.8-0.3c-0.2-0.3-0.2-0.7,0-0.8c0.2-0.2,0.6,0,0.8,0.3
		C44.1,53.2,44.1,53.5,43.9,53.7L43.9,53.7z M43.9,53.7"/>
	<path fill="#F9BB9B" d="M43.7,53.4c-0.1,0.1-0.3,0-0.4-0.1c-0.1-0.1-0.1-0.3,0-0.4c0.1-0.1,0.3,0,0.4,0.1
		C43.8,53.2,43.8,53.3,43.7,53.4L43.7,53.4z M43.7,53.4"/>
	<path fill="#F9BB9B" d="M83.4,30.6c0,0,0.5-0.5,0.9-0.7c0.2-0.1,0.5-0.5,0.8-0.9c0.3-0.4,0.6-0.6,0.6-0.8c-0.1-0.5-0.8-0.3-0.8-0.2
		c-0.6,0.3-1.2,0.8-1.2,0.8l-0.8,0.4L83.4,30.6z M83.4,30.6"/>
	<path fill="#F9BB9B" d="M83.1,26.9c-0.2,0.2,0.4,0.7,0.6,0.9c0.2,0.2,0.4,0.2,0.4,0.2l1.2-0.8c0,0,1.8-0.8,1.6-1.2
		c-0.2-0.3-0.4-0.1-0.8,0l-1.3,0.4L83.1,26.9z M83.1,26.9"/>
	<path fill="#F9BB9B" d="M80,32.3c0.3,0,3.1-1.3,3.5-1.8L83.4,29l0.3-0.6c0.2-0.2,0.5-0.6,0.5-0.6l-0.8-1c-0.3,0.1-0.5,0.2-0.8,0.4
		c-0.4,0.3-2.1,1.8-3.3,2.9C79.4,30.1,79.8,32.3,80,32.3L80,32.3z M80,32.3"/>
	<path fill="#F9BB9B" d="M33.9,55.6c0,0,0,0.6,0.2,0.9c0.1,0.2,0.1,0.6,0,1c0,0.4,0.1,0.7-0.1,0.8c-0.4,0.2-0.7-0.2-0.7-0.3
		c-0.2-0.5-0.3-1.1-0.3-1.1l-0.3-0.7L33.9,55.6z M33.9,55.6"/>
	<path fill="#F9BB9B" d="M31.5,57.8c0-0.2,0.6-0.2,0.9-0.3c0.2,0,0.4,0.1,0.4,0.1l0.3,1.1c0,0,0.7,1.5,0.3,1.6
		c-0.3,0.1-0.4-0.2-0.5-0.4l-0.6-0.9L31.5,57.8z M31.5,57.8"/>
	<path fill="#F9BB9B" d="M32.8,51.8c0.2,0.1,1.1,3.4,1.1,4l-1,0.8l-0.1,0.6v0.7l-1.1,0.2c-0.2-0.2-0.2-0.4-0.3-0.7
		c-0.1-0.4-0.1-2.9-0.3-4.2C31.1,53.2,32.6,51.6,32.8,51.8L32.8,51.8z M32.8,51.8"/>
	<path fill="#F9BB9B" d="M33.2,27.5c0.7-0.7,1.1-3.3,1.1-3.3c-1.7-2.1-3.7-4-3.9-8.1C30.2,12,34.8,10,34.8,10c4-1.9,7.4,1.2,7.4,1.2
		c0.5,0.6,1,1.7,1.4,2.7c0.1,0.3,0.1,0.7,0.1,0.8c0.1,0.2,0.4,0.8,0.4,0.8c0.6,1.1,1.8,1.6,1.8,1.6c1.2,0.5,0.3,1.5,0.3,1.5
		c-0.1,0.2-0.1,0.4,0,0.5l0,2.2c-0.2,0.1-0.2,0.6-0.2,0.6c0.2,2.3-2.2,2.3-2.2,2.3c-3-0.2-3.7,1-4.1,1.5C38.5,27,38,30.8,38,30.8
		s-1.7-0.4-2.8-1.1C34.2,28.9,33.2,27.5,33.2,27.5L33.2,27.5z M33.2,27.5"/>
	<path fill="#38281F" d="M43.2,14.3c0,0-1.4-0.2-2.1,0c-0.2,0.1-0.7,0.8-0.7,0.8s0.6-0.3,0.9-0.4c0.2-0.1,1.9-0.2,1.9-0.2
		S43.5,14.4,43.2,14.3L43.2,14.3z M43.2,14.3"/>
	<path fill="#644B44" d="M43.4,15.3c0,0-0.1,0.4-0.4,0.6c-0.3,0.3-1,0.4-1.7-0.1c0,0,0.9-0.1,1.4-0.2C43.2,15.6,43.4,15.3,43.4,15.3
		L43.4,15.3z M43.4,15.3"/>
	<path fill="#38281F" d="M43.6,13.1c-0.6,0.1-3.1-0.3-4.9,0.8c-0.9,0.6-1.8,1.3-2.4,2.4c-0.9,1.6-1.4,3.5-1.4,5.4
		c0,1.9-0.8,2.8-0.8,2.8S26.4,17,32,11.6c1.8-1.7,7.7-4.9,11.6,0.8C43.6,12.5,43.8,13.1,43.6,13.1L43.6,13.1z M43.6,13.1"/>
	<path fill="#F9BB9B" d="M34.6,17.5c0.6-0.2,1.4,0.2,1.7,1c0.3,0.8,0,1.6-0.6,1.9c-0.6,0.2-1.4-0.2-1.7-1
		C33.7,18.5,33.9,17.7,34.6,17.5L34.6,17.5z M34.6,17.5"/>
	<path fill="#38281F" d="M33,10.9c0,0-4-4.9-7.9-0.8c-1.1,1.2-2.1,2.6-1.5,5.5c0,0,1.2,3.6-0.4,4.8c0,0,3.3,0.3,3.4-2.2
		c0.1-1.6,1.2-6.8,4.6-5.2L33,10.9z M33,10.9"/>
</g>
</svg>
